HIERARCHY
ROOT Hips
{
	OFFSET 0.000000 0.000000 0.000000
	CHANNELS 6 Xposition Yposition Zposition Xrotation Yrotation Zrotation
	JOINT LeftUpLeg_virtual
	{
		OFFSET 0.000000 0.000000 0.000000
		CHANNELS 3 Xrotation Yrotation Zrotation
		JOINT LeftUpLeg
		{
			OFFSET 10.205400 -3.823500 0.155100
			CHANNELS 3 Xrotation Yrotation Zrotation
			JOINT LeftLeg
			{
				OFFSET 0.708757 -12.982077 0.567790
				CHANNELS 3 Xrotation Yrotation Zrotation
				JOINT LeftFoot
				{
					OFFSET -0.708756 -10.717838 -2.184338
					CHANNELS 3 Xrotation Yrotation Zrotation
					JOINT LeftToeBase
					{
						OFFSET 0.108149 -7.191104 7.560241
						CHANNELS 3 Xrotation Yrotation Zrotation
						JOINT LeftToe_End
						{
							OFFSET 0.070230 0.081724 4.490308
							CHANNELS 3 Xrotation Yrotation Zrotation
							End Site
							{
								OFFSET 0 0 0
							}
						}
					}
				}
			}
		}
	}
	JOINT RightUpLeg_virtual
	{
		OFFSET 0.000000 0.000000 0.000000
		CHANNELS 3 Xrotation Yrotation Zrotation
		JOINT RightUpLeg
		{
			OFFSET -10.205400 -3.823500 0.005500
			CHANNELS 3 Xrotation Yrotation Zrotation
			JOINT RightLeg
			{
				OFFSET -0.708756 -12.982134 0.610632
				CHANNELS 3 Xrotation Yrotation Zrotation
				JOINT RightFoot
				{
					OFFSET 0.708754 -10.717769 -1.945823
					CHANNELS 3 Xrotation Yrotation Zrotation
					JOINT RightToeBase
					{
						OFFSET -0.108140 -7.191069 7.372968
						CHANNELS 3 Xrotation Yrotation Zrotation
						JOINT RightToe_End
						{
							OFFSET -0.070227 0.081735 4.479403
							CHANNELS 3 Xrotation Yrotation Zrotation
							End Site
							{
								OFFSET 0 0 0
							}
						}
					}
				}
			}
		}
	}
	JOINT Spine_virtual
	{
		OFFSET 0.000000 0.000000 0.000000
		CHANNELS 3 Xrotation Yrotation Zrotation
		JOINT Spine
		{
			OFFSET 0.000000 6.876099 0.125700
			CHANNELS 3 Xrotation Yrotation Zrotation
			JOINT Spine1
			{
				OFFSET 0.000000 5.730043 0.104720
				CHANNELS 3 Xrotation Yrotation Zrotation
				JOINT Spine1_split
				{
					OFFSET 0.000000 5.730043 0.104720
					CHANNELS 3 Xrotation Yrotation Zrotation
					JOINT Spine2
					{
						OFFSET 0.000000 5.730043 0.104720
						CHANNELS 3 Xrotation Yrotation Zrotation
						JOINT Neck_virtual
						{
							OFFSET 0.000000 0.000000 0.000000
							CHANNELS 3 Xrotation Yrotation Zrotation
							JOINT Neck
							{
								OFFSET 0.000000 10.314075 0.188496
								CHANNELS 3 Xrotation Yrotation Zrotation
								JOINT Head
								{
									OFFSET 0.000000 7.643700 -2.377400
									CHANNELS 3 Xrotation Yrotation Zrotation
									JOINT HeadTop_End
									{
										OFFSET 0.000000 43.788605 -13.619600
										CHANNELS 3 Xrotation Yrotation Zrotation
										End Site
										{
											OFFSET 0 0 0
										}
									}
								}
							}
						}
						JOINT LeftShoulder_virtual
						{
							OFFSET 0.000000 0.000000 0.000000
							CHANNELS 3 Xrotation Yrotation Zrotation
							JOINT LeftShoulder
							{
								OFFSET 2.196100 4.412489 0.087492
								CHANNELS 3 Xrotation Yrotation Zrotation
								JOINT LeftShoulder_split
								{
									OFFSET 2.196100 4.412489 0.087492
									CHANNELS 3 Xrotation Yrotation Zrotation
									JOINT LeftArm
									{
										OFFSET 8.771219 -2.981674 -0.026999
										CHANNELS 3 Xrotation Yrotation Zrotation
										JOINT LeftForeArm
										{
											OFFSET 8.512804 0.000000 -0.000000
											CHANNELS 3 Xrotation Yrotation Zrotation
											JOINT LeftHand
											{
												OFFSET 18.484802 0.000000 -0.000000
												CHANNELS 3 Xrotation Yrotation Zrotation
												End Site
												{
													OFFSET 0 0 0
												}
											}
										}
									}
								}
							}
						}
						JOINT RightShoulder_virtual
						{
							OFFSET 0.000000 0.000000 0.000000
							CHANNELS 3 Xrotation Yrotation Zrotation
							JOINT RightShoulder
							{
								OFFSET -2.196100 4.412496 0.070690
								CHANNELS 3 Xrotation Yrotation Zrotation
								JOINT RightShoulder_split
								{
									OFFSET -2.196100 4.412496 0.070690
									CHANNELS 3 Xrotation Yrotation Zrotation
									JOINT RightArm
									{
										OFFSET -8.771282 -2.981682 -0.094208
										CHANNELS 3 Xrotation Yrotation Zrotation
										JOINT RightForeArm
										{
											OFFSET -8.494598 0.000000 0.000000
											CHANNELS 3 Xrotation Yrotation Zrotation
											JOINT RightHand
											{
												OFFSET -18.483803 0.000000 0.000001
												CHANNELS 3 Xrotation Yrotation Zrotation
												End Site
												{
													OFFSET 0 0 0
												}
											}
										}
									}
								}
							}
						}
					}
				}
			}
		}
	}
}
MOTION
Frames: 7
Frame Time: 0.03333333
-0.428769 83.466980 -11.620957 0.000000 0.000000 0.000000 -3.305008 2.793575 5.967891 -72.627314 27.487202 25.095541 91.147126 -10.464909 5.685156 3.714146 14.764151 -6.280290 2.286724 2.926868 -1.012142 0.000000 0.000000 0.000000 0.984538 2.118934 4.919031 -79.421986 12.169351 -24.452656 97.099574 13.123242 -3.811301 17.185779 -11.518690 36.856476 13.892068 -10.098115 -15.047180 0.000000 0.000000 0.000000 -2.754778 6.192998 2.430538 8.316028 -0.041470 4.501980 17.467292 -2.758645 0.030308 0.112780 0.401989 0.017396 0.000000 0.000000 0.000000 22.762710 -1.062690 -0.187417 -11.626811 12.580676 -5.948101 -9.458295 -31.287310 -20.568138 0.000000 0.000000 0.000000 19.497043 -2.508470 -2.211149 8.401785 -25.321487 25.502313 6.988785 -0.318935 -2.388591 -67.622445 -25.577797 8.694450 0.487574 -50.697496 19.061091 0.000000 0.000000 0.000000 21.768880 -1.102847 0.216391 2.849892 15.462556 -20.150923 12.486989 5.531699 2.279112 -82.693708 36.631326 20.667857 -41.739914 40.651008 12.283837 0.000000 0.000000 0.000000 
0.020100 83.983643 -12.093089 0.000000 0.000000 0.000000 -4.603967 0.136495 5.115625 -78.226560 26.277083 28.110395 93.221263 -11.404098 6.828191 3.836522 11.978606 -7.850317 1.117220 2.730019 -0.148523 0.000000 0.000000 0.000000 -0.296277 0.725804 3.859724 -81.709054 9.706486 -20.176763 92.426093 14.012699 -2.791258 13.450425 -11.869248 33.154903 13.110860 -10.424010 -17.009884 0.000000 0.000000 0.000000 -3.659989 4.461505 2.320705 8.526109 0.272178 3.357685 20.220546 -2.857049 0.754339 0.135392 0.428375 -0.021300 0.000000 0.000000 0.000000 25.313361 -1.045746 0.028850 -11.914443 13.268915 -6.172640 -6.050674 -29.280348 -17.325711 0.000000 0.000000 0.000000 22.270122 -2.618014 -1.662840 9.836229 -24.911080 29.557121 8.798362 -1.276707 -2.554585 -71.173153 -20.473192 9.389593 -1.203433 -46.497418 20.748052 0.000000 0.000000 0.000000 24.386531 -1.079399 0.540267 4.776388 16.459846 -23.450789 13.578726 4.587941 2.565467 -95.169329 34.322179 27.034913 -42.302425 37.127812 10.530837 0.000000 0.000000 0.000000 
0.499496 84.493164 -12.420070 0.000000 0.000000 0.000000 -5.309227 -1.302929 4.477024 -81.252122 26.356616 28.820905 88.968849 -13.698007 7.830736 6.425609 7.632715 -10.830330 0.208392 2.374785 1.371029 0.000000 0.000000 0.000000 -1.094697 -0.334663 3.256802 -80.741633 6.222226 -16.247027 81.682232 14.934250 -1.375416 10.202167 -10.217745 28.534780 12.833470 -10.442092 -18.569382 0.000000 0.000000 0.000000 -3.538747 3.219920 2.437359 7.255791 0.744580 2.427163 22.549692 -2.900810 1.477109 0.162849 0.340393 0.025356 0.000000 0.000000 0.000000 27.552218 -0.923354 0.468695 -11.650416 13.887406 -6.597232 -3.687216 -27.384443 -15.010336 0.000000 0.000000 0.000000 24.601032 -2.600679 -0.922072 10.565522 -23.646320 32.079257 9.373292 -1.738221 -3.136373 -75.063758 -17.615666 8.708654 -3.187764 -40.706018 21.362349 0.000000 0.000000 0.000000 26.506289 -1.020431 1.019101 6.596815 17.448408 -26.001753 15.390571 3.123455 2.828164 -104.126377 33.525027 28.963789 -42.101569 32.984302 9.326950 0.000000 0.000000 0.000000 
0.924683 84.873520 -12.528224 0.000000 0.000000 0.000000 -5.358595 -1.557344 4.234172 -81.497237 27.949916 27.505387 78.972778 -17.231186 7.930737 10.008333 2.464283 -13.647864 -0.865775 1.912712 3.283220 0.000000 0.000000 0.000000 -1.769806 -1.473767 3.362213 -78.703020 3.322435 -13.311673 66.278072 17.150648 0.213940 10.277271 -5.339053 25.510868 13.852360 -10.224620 -19.684352 0.000000 0.000000 0.000000 -2.789554 2.598823 2.746868 5.168642 1.285461 1.753252 24.337176 -2.962958 2.065055 0.141186 0.334484 -0.034346 0.000000 0.000000 0.000000 29.241508 -0.799181 0.994735 -10.986086 14.298698 -7.081929 -2.496920 -26.206061 -13.484191 0.000000 0.000000 0.000000 26.359107 -2.506629 -0.199647 10.663385 -21.467235 33.487297 9.808761 -1.854422 -2.818377 -78.481080 -17.224866 7.983602 -6.469836 -32.486364 19.965654 0.000000 0.000000 0.000000 27.923900 -1.052785 1.540315 8.318662 18.241501 -28.435835 17.374396 1.379087 3.126588 -108.705664 35.226735 26.927799 -41.388040 28.569684 8.581962 0.000000 0.000000 0.000000 
1.233183 84.920479 -12.402322 0.000000 0.000000 0.000000 -5.257066 -0.866028 4.487276 -79.832665 30.588565 24.960057 66.277465 -20.901091 6.693536 12.979454 -2.110174 -14.250187 -1.299276 1.402694 4.793240 0.000000 0.000000 0.000000 -2.117134 -2.204926 3.926990 -76.025415 0.792488 -10.973776 48.661734 19.691842 1.784086 10.763064 0.669052 23.010351 13.076538 -9.442107 -21.417492 0.000000 0.000000 0.000000 -2.231852 2.492762 3.285614 3.097133 1.827153 1.353928 25.508760 -3.045724 2.420208 0.062792 0.322569 -0.045230 0.000000 0.000000 0.000000 30.164636 -0.728331 1.422496 -10.012045 14.396027 -7.497601 -2.123213 -25.723455 -12.427012 0.000000 0.000000 0.000000 27.504950 -2.429271 0.338977 10.291861 -18.449273 34.500501 10.316974 -1.239711 -2.335211 -80.316714 -18.910750 8.226659 -11.035813 -22.474058 16.624522 0.000000 0.000000 0.000000 28.594237 -1.186508 1.923388 9.903195 18.865667 -30.922858 19.134768 -0.045665 2.848926 -108.996780 37.974588 21.709685 -40.731488 25.103226 8.448097 0.000000 0.000000 0.000000 
1.401234 84.443642 -12.064336 0.000000 0.000000 0.000000 -5.537439 -0.066235 4.963479 -77.542270 33.276934 22.361119 55.385427 -24.149122 4.735810 14.370486 -5.369922 -12.132429 -1.394811 0.992329 5.629292 0.000000 0.000000 0.000000 -2.257589 -2.355919 4.483675 -72.552824 -2.022521 -9.096001 33.396746 21.643929 3.230965 9.264389 5.785565 19.990297 8.322802 -7.945412 -24.130881 0.000000 0.000000 0.000000 -2.345123 2.439090 3.936446 1.671650 2.327606 1.210783 26.073912 -3.128676 2.472612 0.020084 0.309573 -0.085142 0.000000 0.000000 0.000000 30.442017 -0.770851 1.566010 -8.878814 14.150073 -7.712758 -2.419201 -26.101004 -11.560611 0.000000 0.000000 0.000000 28.084488 -2.400853 0.573959 9.602856 -15.013937 35.415760 11.007757 -0.523997 -2.145990 -79.630259 -21.365081 10.182041 -16.023832 -12.941269 12.021439 0.000000 0.000000 0.000000 28.683864 -1.409011 2.071791 11.223567 19.324302 -33.602635 20.437108 -0.152335 2.061301 -105.463687 39.544760 13.786172 -40.487859 23.948402 9.098623 0.000000 0.000000 0.000000 
1.442023 83.483734 -11.501475 0.000000 0.000000 0.000000 -6.652015 0.375477 5.345769 -75.904548 35.501179 20.943660 49.749172 -26.876888 2.740884 13.476571 -7.373367 -7.516319 -1.730702 0.698913 5.948642 0.000000 0.000000 0.000000 -3.285555 -2.222843 4.594439 -70.365087 -4.627253 -8.834138 27.545429 23.366864 4.620495 7.857437 8.990186 15.964384 5.066510 -6.905649 -25.732417 0.000000 0.000000 0.000000 -3.457414 2.117412 4.440650 1.119227 2.679893 1.284379 26.103888 -3.204897 2.258507 0.041084 0.323830 -0.140407 0.000000 0.000000 0.000000 30.172658 -0.903392 1.366537 -7.629445 13.542351 -7.704456 -2.938837 -27.273604 -10.641769 0.000000 0.000000 0.000000 28.174308 -2.415645 0.441571 8.848107 -11.865541 36.477329 11.963583 -0.266561 -1.953487 -76.175536 -23.632784 13.896519 -20.651046 -5.392357 6.658615 0.000000 0.000000 0.000000 28.426791 -1.631923 1.898589 12.257148 19.798198 -36.481673 21.192935 0.136290 1.289749 -100.200835 38.415269 4.629635 -40.717951 24.906196 10.214129 0.000000 0.000000 0.000000 
